<svg width="212" height="169" viewBox="0 0 212 169" fill="none" xmlns="http://www.w3.org/2000/svg">
<rect width="212" height="169" fill="white"/>
<path d="M47.7614 43.4659C47.875 40.625 47.0455 38.4318 45.2727 36.8864C43.5227 35.3409 40.875 34.5682 37.3295 34.5682C34.9205 34.5682 32.8295 34.9091 31.0568 35.5909C29.2841 36.25 27.8636 37.1705 26.7955 38.3523C25.75 39.5114 25.1023 40.8523 24.8523 42.375C24.6023 43.625 24.6818 44.7159 25.0909 45.6477C25.5227 46.5795 26.1932 47.3864 27.1023 48.0682C28.0341 48.7273 29.1364 49.3068 30.4091 49.8068C31.6818 50.2841 33.0341 50.6932 34.4659 51.0341L40.4659 52.5341C43.3977 53.2159 46.0341 54.125 48.375 55.2614C50.7386 56.3977 52.7159 57.7955 54.3068 59.4545C55.9205 61.1136 57.0568 63.0682 57.7159 65.3182C58.375 67.5682 58.4659 70.1477 57.9886 73.0568C57.2614 77.3295 55.5682 81.0341 52.9091 84.1705C50.25 87.2841 46.7614 89.7045 42.4432 91.4318C38.125 93.1364 33.125 93.9886 27.4432 93.9886C21.8068 93.9886 17.0455 93.125 13.1591 91.3977C9.27273 89.6705 6.44318 87.1136 4.67045 83.7273C2.92045 80.3182 2.39773 76.1023 3.10227 71.0795H17.3864C17.1364 73.4205 17.4773 75.375 18.4091 76.9432C19.3636 78.4886 20.7841 79.6591 22.6705 80.4545C24.5568 81.2273 26.7727 81.6136 29.3182 81.6136C31.8409 81.6136 34.0795 81.25 36.0341 80.5227C38.0114 79.7955 39.6136 78.7841 40.8409 77.4886C42.0682 76.1932 42.8182 74.7045 43.0909 73.0227C43.3636 71.4545 43.125 70.1364 42.375 69.0682C41.625 68 40.4205 67.0909 38.7614 66.3409C37.125 65.5682 35.0909 64.8864 32.6591 64.2955L25.3636 62.3864C19.7273 60.9545 15.4659 58.7159 12.5795 55.6705C9.69318 52.625 8.65909 48.5227 9.47727 43.3636C10.2045 39.1364 11.9659 35.4432 14.7614 32.2841C17.5795 29.1023 21.125 26.6364 25.3977 24.8864C29.6932 23.1136 34.3864 22.2273 39.4773 22.2273C44.6591 22.2273 49.0341 23.125 52.6023 24.9205C56.1705 26.6932 58.7727 29.1705 60.4091 32.3523C62.0455 35.5341 62.5455 39.2386 61.9091 43.4659H47.7614ZM69.4108 93L81.0017 23.1818H127.229L125.184 35.3523H93.7176L90.9903 51.9886H119.388L117.343 64.1591H88.9449L84.1722 93H69.4108Z" fill="#3D3838"/>
<path d="M134.748 93.3707C133.503 93.3707 132.425 93.1534 131.513 92.7188C130.61 92.2756 129.945 91.6193 129.519 90.75C129.093 89.8807 128.986 88.8026 129.199 87.5156C129.387 86.4247 129.741 85.5128 130.261 84.7798C130.789 84.0384 131.432 83.4418 132.191 82.9901C132.949 82.5384 133.789 82.1932 134.709 81.9545C135.638 81.7159 136.597 81.554 137.586 81.4688C138.728 81.3494 139.657 81.2344 140.373 81.1236C141.097 81.0128 141.638 80.8551 141.996 80.6506C142.354 80.4375 142.572 80.1222 142.648 79.7045V79.6278C142.776 78.8267 142.627 78.2045 142.201 77.7614C141.783 77.3097 141.114 77.0838 140.194 77.0838C139.222 77.0838 138.395 77.2969 137.714 77.723C137.04 78.1491 136.559 78.6903 136.269 79.3466L131.309 78.9375C131.752 77.7443 132.421 76.7131 133.316 75.8438C134.219 74.9659 135.306 74.2926 136.576 73.8239C137.846 73.3466 139.269 73.108 140.846 73.108C141.937 73.108 142.955 73.2358 143.901 73.4915C144.856 73.7472 145.678 74.1435 146.368 74.6804C147.067 75.2173 147.57 75.9077 147.877 76.7514C148.192 77.5866 148.256 78.5881 148.069 79.7557L145.857 93H140.692L141.153 90.277H140.999C140.582 90.8906 140.07 91.4318 139.465 91.9006C138.86 92.3608 138.165 92.723 137.381 92.9872C136.597 93.2429 135.719 93.3707 134.748 93.3707ZM136.934 89.6122C137.726 89.6122 138.455 89.4545 139.12 89.1392C139.793 88.8153 140.347 88.3807 140.782 87.8352C141.225 87.2898 141.506 86.6719 141.626 85.9815L141.958 83.8977C141.788 84.0085 141.54 84.1065 141.216 84.1918C140.901 84.277 140.556 84.358 140.181 84.4347C139.814 84.5028 139.444 84.5668 139.069 84.6264C138.694 84.6776 138.357 84.7287 138.059 84.7798C137.403 84.8736 136.814 85.0227 136.295 85.2273C135.775 85.4318 135.353 85.7088 135.029 86.0582C134.705 86.3991 134.505 86.8253 134.428 87.3366C134.309 88.0781 134.484 88.6449 134.952 89.0369C135.43 89.4205 136.09 89.6122 136.934 89.6122ZM170.534 78.9631L165.587 79.2699C165.561 78.8352 165.442 78.4474 165.229 78.1065C165.024 77.7571 164.722 77.4801 164.321 77.2756C163.929 77.071 163.435 76.9688 162.838 76.9688C161.943 76.9688 161.146 77.1733 160.448 77.5824C159.749 77.9915 159.352 78.5156 159.259 79.1548C159.182 79.5639 159.288 79.9091 159.578 80.1903C159.868 80.4716 160.452 80.7102 161.33 80.9062L164.781 81.6222C166.622 82.0142 167.952 82.6662 168.77 83.5781C169.597 84.4901 169.891 85.6832 169.652 87.1577C169.439 88.4105 168.889 89.5057 168.003 90.4432C167.117 91.3722 165.992 92.0966 164.628 92.6165C163.264 93.1278 161.752 93.3835 160.09 93.3835C157.422 93.3835 155.394 92.8381 154.004 91.7472C152.615 90.6562 151.946 89.1776 151.997 87.3111L157.315 87.0298C157.358 87.831 157.639 88.4361 158.159 88.8452C158.679 89.2457 159.391 89.4503 160.294 89.4588C161.308 89.4759 162.169 89.267 162.877 88.8324C163.592 88.3892 163.997 87.8523 164.091 87.2216C164.159 86.7784 164.031 86.4205 163.708 86.1477C163.392 85.875 162.813 85.6491 161.969 85.4702L158.696 84.7926C156.838 84.4091 155.504 83.723 154.695 82.7344C153.885 81.7457 153.608 80.4886 153.864 78.9631C154.068 77.7443 154.575 76.7003 155.385 75.831C156.203 74.9531 157.256 74.2798 158.543 73.8111C159.838 73.3423 161.3 73.108 162.928 73.108C165.476 73.108 167.394 73.6321 168.681 74.6804C169.976 75.7287 170.594 77.1562 170.534 78.9631ZM187.614 73.3636L186.937 77.4545H175.099L175.789 73.3636H187.614ZM179.241 68.6591H184.687L181.644 86.9659C181.559 87.4687 181.572 87.8608 181.683 88.142C181.793 88.4148 181.977 88.6065 182.232 88.7173C182.497 88.8281 182.812 88.8835 183.178 88.8835C183.434 88.8835 183.694 88.8622 183.958 88.8196C184.222 88.7685 184.423 88.7301 184.559 88.7045L184.764 92.7571C184.457 92.8509 184.043 92.9531 183.524 93.0639C183.012 93.1747 182.407 93.2429 181.708 93.2685C180.379 93.3196 179.254 93.1449 178.333 92.7443C177.413 92.3352 176.752 91.7088 176.352 90.8651C175.951 90.0213 175.866 88.9602 176.096 87.6818L179.241 68.6591Z" fill="#5F5F5F"/>
<g clip-path="url(#clip0_137_17)">
<path d="M146.56 42.9823L71.0672 112.801H94.9069L55.8407 175.381L138.012 99.3846H111.793L146.56 42.9823Z" fill="#FF3C30"/>
<path d="M111.793 99.8846H136.735L58.2412 172.48L95.331 113.066L95.8084 112.301H94.9069H72.3442L144.217 45.8299L111.368 99.1222L110.898 99.8846H111.793Z" stroke="black" stroke-opacity="0.2"/>
</g>
<defs>
<clipPath id="clip0_137_17">
<rect width="173" height="160" fill="white" transform="translate(39 9)"/>
</clipPath>
</defs>
</svg>
